<svg width="26" height="26" viewBox="0 0 26 26" fill="none" xmlns="http://www.w3.org/2000/svg">
<path d="M24.7699 0.5625H5.7358C5.57955 0.5625 5.4517 0.662946 5.4517 0.785714V2.34821C5.4517 2.47098 5.57955 2.57143 5.7358 2.57143H23.3494V21.7679C23.3494 21.8906 23.4773 21.9911 23.6335 21.9911H25.6222C25.7784 21.9911 25.9062 21.8906 25.9062 21.7679V1.45536C25.9062 0.961496 25.3984 0.5625 24.7699 0.5625ZM20.2244 4.13393H2.04261C1.41406 4.13393 0.90625 4.53292 0.90625 5.02679V19.8343C0.90625 20.0714 1.02699 20.2974 1.24006 20.4648L7.39418 25.3002C7.4723 25.3616 7.56108 25.4118 7.65696 25.4537V25.5067H7.80611C7.9304 25.543 8.06179 25.5625 8.19673 25.5625H20.2244C20.853 25.5625 21.3608 25.1635 21.3608 24.6696V5.02679C21.3608 4.53292 20.853 4.13393 20.2244 4.13393ZM8.78977 23.7768H8.78267L3.46307 19.5971V19.5915H8.78977V23.7768Z" fill="#FFC542"/>
</svg>
