<svg width="30" height="30" viewBox="0 0 30 30" fill="none" xmlns="http://www.w3.org/2000/svg">
<path d="M6.56408 12.102C5.89088 14.0607 5.92057 16.1928 6.64808 18.132C7.10437 19.3486 7.82098 20.4509 8.74776 21.3616C9.67454 22.2723 10.7891 22.9695 12.0135 23.4044C13.2379 23.8393 14.5425 24.0014 15.8361 23.8794C17.1296 23.7574 18.3809 23.3542 19.5024 22.698C21.2707 21.6622 22.6295 20.0502 23.3512 18.132H15.3296V12.198H29.7379C30.2443 14.8726 30.0141 17.6346 29.072 20.1885C28.1298 22.7424 26.5112 24.9921 24.3891 26.697C22.5195 28.198 20.3173 29.229 17.9672 29.7034C15.617 30.1779 13.1874 30.082 10.882 29.4238C8.57649 28.7657 6.46239 27.5644 4.71685 25.9207C2.97132 24.277 1.64522 22.2389 0.849708 19.977C0.0542002 17.7151 -0.187533 15.2955 0.14477 12.921C0.477073 10.5465 1.37373 8.28618 2.75958 6.32962C4.14543 4.37307 5.98009 2.77725 8.10976 1.67595C10.2394 0.574643 12.6021 -6.17247e-05 14.9996 7.13888e-06C18.4965 -0.00340933 21.8839 1.21954 24.5721 3.45601L19.7124 7.43401C18.5739 6.72517 17.2903 6.28214 15.957 6.13784C14.6237 5.99354 13.2751 6.1517 12.0113 6.60055C10.7476 7.04939 9.60128 7.77738 8.65768 8.73037C7.71407 9.68337 6.99745 10.8368 6.56109 12.105H6.56408V12.102Z" fill="#DB5848"/>
</svg>
